<svg width="320" height="289" viewBox="0 0 320 289" fill="none" xmlns="http://www.w3.org/2000/svg">
<g filter="url(#filter0_d_151_31)">
<rect x="26.2137" y="62.5697" width="227" height="177" rx="16" transform="rotate(-16 26.2137 62.5697)" fill="white"/>
<rect x="26.8322" y="62.9125" width="226" height="176" rx="15.5" transform="rotate(-16 26.8322 62.9125)" stroke="#ECECEC"/>
</g>
<path d="M52.5989 88.2938L49.5074 77.5123L47.5234 78.0812L47.0426 76.4048L53.2562 74.6231L53.7369 76.2995L51.7837 76.8596L54.8752 87.6411L52.5989 88.2938ZM59.3458 86.509C58.6999 86.6942 58.1329 86.7292 57.6449 86.6139C57.1539 86.4884 56.7346 86.2258 56.387 85.8261C56.0496 85.4235 55.7868 84.8941 55.5987 84.2379L54.7431 81.2541C54.5549 80.5979 54.4972 80.0097 54.57 79.4895C54.653 78.9663 54.8709 78.5266 55.2237 78.1702C55.5735 77.8036 56.0714 77.5276 56.7174 77.3424C57.3633 77.1572 57.9318 77.1273 58.4227 77.2529C58.921 77.3652 59.3388 77.6227 59.6762 78.0253C60.0238 78.425 60.2917 78.9529 60.4799 79.6091L61.3355 82.5929C61.5237 83.2491 61.5762 83.8388 61.4932 84.3619C61.4205 84.8821 61.204 85.327 60.8439 85.6966C60.4912 86.053 59.9918 86.3238 59.3458 86.509ZM58.9467 85.0588C59.1825 84.9912 59.3377 84.8746 59.4123 84.709C59.4868 84.5433 59.5071 84.3433 59.4732 84.1089C59.4364 83.8643 59.3782 83.6035 59.2989 83.3267L58.3639 80.0661C58.2845 79.7892 58.1971 79.5424 58.1017 79.3257C58.0062 79.1089 57.883 78.9501 57.732 78.8491C57.578 78.7379 57.3831 78.7161 57.1473 78.7837C56.9115 78.8514 56.7577 78.9731 56.6861 79.149C56.6116 79.3146 56.5861 79.5161 56.6098 79.7535C56.6437 79.9879 56.7003 80.2435 56.7797 80.5203L57.7147 83.7809C57.7941 84.0578 57.883 84.3097 57.9813 84.5367C58.087 84.7505 58.2154 84.9079 58.3664 85.0089C58.5174 85.1098 58.7108 85.1265 58.9467 85.0588ZM65.9209 84.5903C65.357 84.752 64.8845 84.7876 64.5035 84.6972C64.1327 84.6038 63.8307 84.4018 63.5974 84.0915C63.3642 83.7811 63.1784 83.3849 63.0403 82.903L61.5231 77.6122L60.6311 77.868L60.2342 76.4838L61.1262 76.228L60.3633 73.5672L62.4704 72.963L63.2333 75.6238L64.5868 75.2357L64.9837 76.6199L63.6302 77.008L65.0944 82.1142C65.1826 82.4218 65.3125 82.6232 65.484 82.7182C65.6526 82.8031 65.8702 82.8073 66.1367 82.7308C66.2495 82.6985 66.3557 82.6625 66.4553 82.6228C66.5652 82.5802 66.6699 82.5391 66.7695 82.4994L67.2281 84.099C67.0597 84.1695 66.8605 84.2488 66.6306 84.3369C66.4138 84.4324 66.1773 84.5168 65.9209 84.5903ZM69.5915 83.5711C69.1916 83.6858 68.8135 83.6832 68.4574 83.5634C68.1086 83.4304 67.8117 83.227 67.5667 82.9533C67.3188 82.6693 67.1449 82.353 67.0449 82.0043C66.8862 81.4506 66.8549 80.9547 66.9512 80.5165C67.0475 80.0784 67.2281 79.6826 67.4929 79.3292C67.768 78.9729 68.0893 78.6422 68.4568 78.3371C68.8316 78.0188 69.2225 77.7181 69.6296 77.4349L69.409 76.6659C69.3355 76.4096 69.2533 76.2001 69.1623 76.0376C69.0816 75.8721 68.9767 75.7579 68.8477 75.695C68.7187 75.6321 68.5568 75.6286 68.362 75.6845C68.1774 75.7374 68.0405 75.8211 67.9512 75.9354C67.8722 76.0469 67.8291 76.1868 67.822 76.3553C67.8221 76.5106 67.8501 76.6857 67.906 76.8805L68.0296 77.4276L66.0081 77.9241C65.7551 76.887 65.7953 76.0598 66.1288 75.4427C66.4593 74.8153 67.1116 74.3619 68.0857 74.0826C68.9778 73.8268 69.6994 73.8862 70.2507 74.2607C70.802 74.6353 71.1981 75.243 71.4392 76.0837L72.6168 80.1903C72.7108 80.5184 72.8012 80.8143 72.8879 81.0779C72.9849 81.3386 73.0745 81.5737 73.1567 81.7831C73.2492 81.9896 73.3293 82.172 73.3968 82.3301L71.505 82.8726C71.4155 82.6764 71.3134 82.4559 71.1989 82.2114C71.0815 81.9565 70.9948 81.7705 70.9391 81.6534C70.9394 82.0416 70.8387 82.4256 70.6369 82.8053C70.4321 83.1747 70.0836 83.43 69.5915 83.5711ZM69.915 81.7972C70.0483 81.759 70.1625 81.6929 70.2577 81.5991C70.3499 81.495 70.4289 81.3835 70.4947 81.2648C70.5606 81.1461 70.6088 81.0434 70.6395 80.957L69.9295 78.4808C69.7318 78.6817 69.5496 78.8782 69.3828 79.0703C69.2262 79.2594 69.0996 79.4566 69.0031 79.6618C68.9037 79.8568 68.8394 80.0583 68.8103 80.2664C68.7812 80.4745 68.8019 80.7016 68.8725 80.9477C68.9666 81.2758 69.1031 81.5196 69.282 81.6791C69.4682 81.8255 69.6792 81.8648 69.915 81.7972ZM74.5898 81.988L71.0176 69.5301L73.0939 68.9347L76.6662 81.3927L74.5898 81.988ZM81.6512 79.9632L78.0789 67.5053L80.3244 66.8614L83.8967 79.3194L81.6512 79.9632ZM85.3792 78.8943L82.8301 70.0045L84.9218 69.4047L85.1776 70.2968C85.4072 69.898 85.6699 69.5564 85.9656 69.2719C86.2686 68.9741 86.6252 68.7665 87.0353 68.6489C87.4044 68.543 87.7231 68.5515 87.9914 68.6743C88.2567 68.7869 88.4832 68.9772 88.671 69.2451C88.8588 69.5131 89.0027 69.8213 89.1027 70.17L91.1314 77.2448L89.0397 77.8446L87.13 71.185C87.0536 70.9184 86.9538 70.7251 86.8306 70.6051C86.7074 70.4851 86.5279 70.4589 86.2921 70.5265C86.1485 70.5676 86.0013 70.6542 85.8506 70.7862C85.71 70.9153 85.5754 71.0649 85.4466 71.235L87.4709 78.2945L85.3792 78.8943ZM95.072 76.2647C94.385 76.4617 93.7946 76.4923 93.3007 76.3565C92.8141 76.2075 92.4043 75.92 92.0713 75.4939C91.7456 75.0547 91.4872 74.5018 91.2961 73.8354L90.5287 71.1592C90.3317 70.4722 90.2564 69.8613 90.3028 69.3265C90.3594 68.7887 90.5612 68.3314 90.9081 67.9545C91.255 67.5776 91.7668 67.2922 92.4435 67.0981C93.0792 66.9158 93.6264 66.8699 94.0851 66.9603C94.5511 67.0375 94.9352 67.2547 95.2374 67.6119C95.5366 67.9589 95.7744 68.44 95.9508 69.0552L96.1625 69.7934L94.1938 70.3579L93.9689 69.5735C93.8807 69.2659 93.786 69.0323 93.6847 68.8727C93.5908 68.6999 93.4771 68.5938 93.3438 68.5544C93.2075 68.5047 93.047 68.5063 92.8625 68.5592C92.6779 68.6121 92.5439 68.706 92.4605 68.8409C92.3742 68.9655 92.3363 69.1429 92.3468 69.3729C92.3675 69.6 92.4322 69.9032 92.541 70.2826L93.476 73.5432C93.6406 74.1174 93.8139 74.4894 93.9957 74.6591C94.1746 74.8187 94.3974 74.8602 94.664 74.7838C94.869 74.725 95.0096 74.6347 95.0857 74.5131C95.172 74.3884 95.2056 74.2346 95.1863 74.0514C95.1744 73.8551 95.1317 73.6288 95.0582 73.3724L94.7848 72.4189L96.7535 71.8544L96.996 72.7003C97.1665 73.295 97.2147 73.8305 97.1404 74.3067C97.0764 74.78 96.8702 75.1831 96.5218 75.5161C96.1807 75.8358 95.6974 76.0853 95.072 76.2647ZM101.524 74.4147C100.878 74.5999 100.311 74.6349 99.8226 74.5196C99.3317 74.3941 98.9124 74.1315 98.5648 73.7318C98.2274 73.3292 97.9646 72.7998 97.7764 72.1436L96.9209 69.1598C96.7327 68.5036 96.675 67.9154 96.7478 67.3952C96.8308 66.872 97.0487 66.4323 97.4014 66.0759C97.7513 65.7093 98.2492 65.4334 98.8951 65.2481C99.5411 65.0629 100.11 65.0331 100.601 65.1586C101.099 65.2709 101.517 65.5284 101.854 65.931C102.202 66.3307 102.47 66.8586 102.658 67.5148L103.513 70.4986C103.701 71.1548 103.754 71.7445 103.671 72.2676C103.598 72.7879 103.382 73.2327 103.022 73.6023C102.669 73.9587 102.17 74.2295 101.524 74.4147ZM101.124 72.9646C101.36 72.8969 101.515 72.7803 101.59 72.6147C101.665 72.449 101.685 72.249 101.651 72.0146C101.614 71.77 101.556 71.5092 101.477 71.2324L100.542 67.9718C100.462 67.6949 100.375 67.4481 100.279 67.2314C100.184 67.0146 100.061 66.8558 99.9097 66.7548C99.7558 66.6436 99.5609 66.6218 99.3251 66.6895C99.0892 66.7571 98.9355 66.8788 98.8639 67.0547C98.7893 67.2204 98.7639 67.4218 98.7875 67.6592C98.8215 67.8936 98.8781 68.1492 98.9575 68.426L99.8925 71.6866C99.9718 71.9635 100.061 72.2154 100.159 72.4424C100.265 72.6562 100.393 72.8136 100.544 72.9146C100.695 73.0155 100.889 73.0322 101.124 72.9646ZM105.484 73.1293L102.935 64.2396L104.95 63.6618L105.17 64.4308C105.384 64.0145 105.649 63.6831 105.967 63.4367C106.282 63.18 106.624 62.9987 106.993 62.8928C107.341 62.7929 107.669 62.7933 107.975 62.8941C108.292 62.992 108.566 63.213 108.798 63.5571C109.025 63.0704 109.304 62.6906 109.636 62.4178C109.966 62.1347 110.33 61.9358 110.73 61.8212C111.048 61.73 111.354 61.7312 111.647 61.8247C111.937 61.9079 112.199 62.0879 112.434 62.3646C112.666 62.631 112.849 63.0001 112.985 63.4717L114.974 70.4082L112.974 70.9815L111.038 64.2296C110.941 63.8913 110.818 63.6767 110.67 63.586C110.519 63.4851 110.341 63.464 110.136 63.5228C109.972 63.5699 109.801 63.6689 109.622 63.82C109.454 63.9681 109.311 64.1478 109.194 64.3589C109.203 64.3896 109.212 64.4204 109.221 64.4511C109.227 64.4716 109.235 64.5024 109.247 64.5434L111.236 71.4799L109.252 72.0488L107.316 65.2969C107.219 64.9585 107.091 64.7455 106.933 64.6577C106.782 64.5568 106.604 64.5357 106.399 64.5945C106.235 64.6415 106.069 64.7391 105.9 64.8873C105.732 65.0354 105.584 65.2165 105.457 65.4305L107.499 72.5516L105.484 73.1293ZM118.947 69.4186C118.281 69.6097 117.702 69.6425 117.211 69.517C116.717 69.3812 116.298 69.1017 115.955 68.6786C115.619 68.2423 115.353 67.6807 115.156 66.9937L114.388 64.3175C114.186 63.6101 114.112 62.9874 114.169 62.4496C114.236 61.9089 114.444 61.4553 114.794 61.0886C115.154 60.7191 115.662 60.4402 116.319 60.252C117.026 60.0492 117.613 60.0252 118.079 60.18C118.555 60.3319 118.949 60.6407 119.26 61.1064C119.578 61.5588 119.842 62.149 120.051 62.877L120.412 64.1382L116.875 65.1525L117.378 66.9059C117.46 67.193 117.553 67.4214 117.657 67.5913C117.772 67.7582 117.902 67.8651 118.049 67.9118C118.196 67.9586 118.356 67.9569 118.53 67.9069C118.715 67.854 118.852 67.7704 118.941 67.656C119.027 67.5314 119.073 67.3797 119.077 67.2009C119.078 67.0119 119.042 66.7893 118.969 66.5329L118.757 65.7947L120.71 65.2346L120.882 65.8344C121.141 66.7367 121.114 67.4935 120.801 68.1048C120.488 68.7161 119.87 69.154 118.947 69.4186ZM116.579 64.1221L118.148 63.6722L117.906 62.8263C117.817 62.5187 117.721 62.28 117.617 62.1101C117.51 61.93 117.388 61.8151 117.252 61.7654C117.113 61.7055 116.94 61.7049 116.735 61.7637C116.551 61.8166 116.415 61.9054 116.329 62.03C116.243 62.1546 116.205 62.332 116.215 62.562C116.226 62.792 116.288 63.107 116.403 63.5068L116.579 64.1221ZM125.227 67.618C124.478 67.8326 123.806 67.8091 123.209 67.5474C122.612 67.2857 122.101 66.7997 121.676 66.0895L123.057 65.0443C123.318 65.4909 123.588 65.813 123.867 66.0105C124.145 66.208 124.449 66.2598 124.777 66.1657C125.023 66.0951 125.19 65.9807 125.278 65.8224C125.365 65.664 125.378 65.4772 125.317 65.2619C125.246 65.0158 125.106 64.8174 124.896 64.6667C124.694 64.5028 124.371 64.3236 123.927 64.1292L122.59 63.5304C122.103 63.3038 121.687 63.0515 121.341 62.7734C121.002 62.4822 120.756 62.0699 120.603 61.5368C120.465 61.0549 120.455 60.6138 120.573 60.2137C120.699 59.8004 120.925 59.4471 121.252 59.1538C121.585 58.8472 121.988 58.6263 122.46 58.4911C123.198 58.2794 123.849 58.3257 124.414 58.6299C124.975 58.9238 125.421 59.3952 125.751 60.044L124.504 61.0342C124.382 60.8028 124.24 60.5992 124.079 60.4236C123.925 60.2347 123.752 60.0957 123.56 60.0065C123.368 59.9173 123.164 59.9036 122.949 59.9653C122.734 60.0271 122.579 60.1437 122.483 60.3152C122.399 60.4838 122.386 60.6706 122.444 60.8757C122.494 61.05 122.618 61.2088 122.814 61.3522C123.021 61.4927 123.296 61.6412 123.641 61.7976L125.015 62.4688C125.31 62.6063 125.599 62.762 125.882 62.9361C126.164 63.1102 126.42 63.3253 126.649 63.5815C126.875 63.8275 127.042 64.1401 127.151 64.5195C127.298 65.0322 127.304 65.4966 127.168 65.9129C127.042 66.3262 126.806 66.6824 126.459 66.9817C126.119 67.2677 125.709 67.4798 125.227 67.618Z" fill="#151515"/>
<rect x="69.829" y="138.488" width="19" height="59" rx="9.5" transform="rotate(-16 69.829 138.488)" fill="#F2F2F2"/>
<path d="M94.0034 206.616L93.8248 205.993C94.0145 205.939 94.1646 205.882 94.2752 205.822C94.3857 205.763 94.4622 205.691 94.5046 205.607C94.5522 205.521 94.5711 205.413 94.5614 205.282C94.5503 205.147 94.5168 204.982 94.461 204.787L93.0828 199.981L93.9441 199.734L95.3267 204.555C95.4296 204.914 95.4757 205.22 95.4649 205.473C95.4527 205.72 95.3653 205.929 95.2029 206.097C95.0389 206.261 94.7775 206.394 94.4187 206.497L94.0034 206.616ZM97.3226 205.573C97.1483 205.623 96.9806 205.618 96.8193 205.559C96.6566 205.494 96.5148 205.396 96.3938 205.265C96.2713 205.128 96.1851 204.972 96.1351 204.798C96.0557 204.521 96.035 204.275 96.0729 204.058C96.1107 203.842 96.1908 203.647 96.313 203.474C96.4388 203.293 96.5928 203.124 96.7751 202.967C96.9625 202.807 97.1609 202.648 97.3702 202.488L97.2798 202.173C97.2284 201.993 97.1755 201.847 97.1212 201.735C97.0669 201.623 96.9983 201.549 96.9155 201.511C96.8363 201.468 96.7327 201.464 96.6045 201.501C96.4917 201.533 96.4068 201.585 96.3497 201.657C96.2977 201.727 96.2704 201.816 96.2675 201.922C96.2632 202.023 96.2795 202.138 96.3162 202.266L96.3802 202.489L95.5562 202.692C95.4253 202.197 95.4345 201.803 95.5836 201.511C95.7313 201.213 96.0308 201 96.4819 200.87C96.9228 200.744 97.2701 200.775 97.5237 200.963C97.7774 201.151 97.9696 201.473 98.1005 201.929L98.6826 203.959C98.7223 204.098 98.7631 204.23 98.805 204.357C98.852 204.482 98.8968 204.6 98.9394 204.709C98.9856 204.813 99.0278 204.912 99.066 205.006L98.3124 205.222C98.2735 205.145 98.2236 205.048 98.1627 204.932C98.1054 204.81 98.057 204.699 98.0173 204.599C98.016 204.788 97.9631 204.981 97.8585 205.178C97.7576 205.367 97.579 205.499 97.3226 205.573ZM97.4428 204.772C97.5248 204.749 97.5951 204.704 97.6536 204.637C97.7122 204.57 97.7615 204.501 97.8018 204.428C97.8405 204.35 97.865 204.291 97.8752 204.249L97.5136 202.988C97.406 203.096 97.3061 203.203 97.2139 203.307C97.1217 203.411 97.0438 203.516 96.9801 203.623C96.9201 203.724 96.8792 203.833 96.8574 203.95C96.8392 204.061 96.8484 204.18 96.8852 204.308C96.9366 204.488 97.0104 204.619 97.1064 204.702C97.2025 204.786 97.3146 204.809 97.4428 204.772ZM99.7826 204.801L98.508 200.356L99.3309 200.12L99.4566 200.558C99.5656 200.377 99.6958 200.212 99.8473 200.063C99.9988 199.914 100.182 199.809 100.398 199.747C100.577 199.696 100.726 199.703 100.845 199.769C100.969 199.833 101.068 199.929 101.144 200.058C101.225 200.184 101.286 200.319 101.327 200.463L102.359 204.062L101.536 204.298L100.572 200.937C100.527 200.778 100.468 200.662 100.397 200.588C100.326 200.514 100.219 200.498 100.075 200.539C99.9829 200.565 99.8936 200.621 99.8073 200.707C99.7246 200.786 99.6481 200.878 99.5779 200.981L100.605 204.565L99.7826 204.801Z" fill="#666666"/>
<rect x="96.7235" y="108.93" width="19" height="80" rx="9.5" transform="rotate(-16 96.7235 108.93)" fill="#F2F2F2"/>
<path d="M126.706 197.08L124.92 190.851L127.327 190.161L127.505 190.784L125.967 191.225L126.563 193.302L127.755 192.96L127.931 193.575L126.739 193.917L127.575 196.831L126.706 197.08ZM130.783 195.978C130.435 196.078 130.147 196.088 129.919 196.009C129.689 195.925 129.499 195.764 129.347 195.524C129.199 195.278 129.069 194.963 128.959 194.578L128.668 193.563C128.555 193.169 128.499 192.829 128.501 192.546C128.503 192.262 128.58 192.027 128.731 191.839C128.888 191.65 129.135 191.507 129.474 191.41C129.848 191.303 130.144 191.301 130.363 191.405C130.586 191.507 130.768 191.696 130.908 191.972C131.047 192.243 131.174 192.581 131.29 192.986L131.394 193.348L129.641 193.85L129.897 194.742C129.948 194.922 130.005 195.064 130.068 195.168C130.137 195.27 130.215 195.339 130.303 195.375C130.394 195.404 130.499 195.402 130.617 195.368C130.74 195.333 130.824 195.278 130.87 195.204C130.919 195.123 130.938 195.026 130.927 194.913C130.921 194.793 130.896 194.658 130.853 194.51L130.776 194.24L131.576 194.011L131.625 194.18C131.752 194.626 131.758 195.005 131.642 195.315C131.526 195.626 131.24 195.847 130.783 195.978ZM129.513 193.404L130.459 193.133L130.344 192.733C130.291 192.549 130.237 192.398 130.181 192.281C130.124 192.158 130.053 192.076 129.969 192.034C129.888 191.985 129.779 191.98 129.64 192.02C129.507 192.058 129.413 192.118 129.359 192.2C129.31 192.281 129.294 192.399 129.311 192.555C129.326 192.706 129.371 192.91 129.445 193.166L129.513 193.404ZM134.382 194.946C134.223 194.992 134.068 194.994 133.918 194.954C133.771 194.907 133.638 194.849 133.518 194.778L133.61 195.101L132.788 195.337L131.001 189.108L131.824 188.872L132.437 191.009C132.502 190.869 132.59 190.738 132.7 190.618C132.814 190.496 132.967 190.408 133.156 190.354C133.387 190.288 133.587 190.297 133.755 190.382C133.928 190.46 134.073 190.582 134.193 190.747C134.311 190.908 134.408 191.08 134.483 191.264C134.556 191.442 134.612 191.598 134.65 191.732L134.959 192.808C135.048 193.121 135.103 193.427 135.122 193.727C135.14 194.021 135.095 194.278 134.986 194.498C134.875 194.713 134.674 194.862 134.382 194.946ZM134.027 194.349C134.171 194.307 134.259 194.227 134.291 194.107C134.321 193.981 134.319 193.827 134.283 193.643C134.247 193.459 134.198 193.259 134.136 193.044L133.827 191.967C133.774 191.783 133.715 191.617 133.651 191.469C133.585 191.316 133.505 191.203 133.412 191.129C133.319 191.056 133.201 191.04 133.057 191.081C132.949 191.112 132.854 191.165 132.769 191.239C132.69 191.311 132.623 191.386 132.567 191.463L133.385 194.316C133.473 194.352 133.572 194.376 133.681 194.39C133.794 194.396 133.909 194.382 134.027 194.349Z" fill="#666666"/>
<rect x="134.37" y="116.86" width="19" height="62" rx="9.5" transform="rotate(-16 134.37 116.86)" fill="#F2F2F2"/>
<path d="M159.778 187.597L158.107 181.335L158.961 181.091L161.509 185.828L161.168 180.458L162.014 180.215L163.915 186.411L163.215 186.612L161.849 182.11L162.092 186.934L161.6 187.075L159.258 182.853L160.485 187.394L159.778 187.597ZM165.487 186.027C165.313 186.077 165.145 186.072 164.984 186.013C164.821 185.949 164.679 185.851 164.558 185.719C164.436 185.582 164.35 185.426 164.3 185.252C164.22 184.975 164.2 184.729 164.237 184.513C164.275 184.296 164.355 184.101 164.478 183.928C164.603 183.747 164.757 183.578 164.94 183.421C165.127 183.262 165.325 183.102 165.535 182.942L165.444 182.627C165.393 182.447 165.34 182.302 165.286 182.19C165.231 182.078 165.163 182.003 165.08 181.966C165.001 181.922 164.897 181.918 164.769 181.955C164.656 181.987 164.571 182.039 164.514 182.111C164.462 182.182 164.435 182.27 164.432 182.376C164.428 182.477 164.444 182.592 164.481 182.72L164.545 182.943L163.721 183.146C163.59 182.651 163.599 182.257 163.748 181.965C163.896 181.667 164.195 181.454 164.647 181.324C165.087 181.198 165.435 181.229 165.688 181.417C165.942 181.605 166.134 181.927 166.265 182.383L166.847 184.413C166.887 184.552 166.928 184.684 166.97 184.811C167.017 184.936 167.061 185.054 167.104 185.164C167.15 185.267 167.192 185.366 167.231 185.46L166.477 185.676C166.438 185.599 166.388 185.502 166.327 185.386C166.27 185.264 166.222 185.153 166.182 185.054C166.181 185.243 166.128 185.435 166.023 185.632C165.922 185.822 165.744 185.953 165.487 186.027ZM165.607 185.227C165.689 185.203 165.76 185.158 165.818 185.091C165.877 185.025 165.926 184.955 165.966 184.882C166.005 184.805 166.03 184.745 166.04 184.703L165.678 183.442C165.571 183.551 165.471 183.657 165.378 183.761C165.286 183.865 165.208 183.971 165.145 184.078C165.085 184.178 165.044 184.287 165.022 184.404C165.004 184.515 165.013 184.634 165.05 184.762C165.101 184.942 165.175 185.073 165.271 185.157C165.367 185.24 165.479 185.263 165.607 185.227ZM167.97 185.248L166.696 180.803L167.519 180.567L167.699 181.198C167.786 180.879 167.897 180.65 168.035 180.511C168.173 180.372 168.323 180.278 168.487 180.231C168.508 180.225 168.526 180.22 168.541 180.216C168.562 180.21 168.588 180.205 168.62 180.201L168.881 181.109C168.812 181.101 168.734 181.101 168.648 181.109C168.565 181.111 168.482 181.123 168.4 181.147C168.272 181.183 168.163 181.248 168.073 181.34C167.987 181.426 167.917 181.568 167.863 181.767L168.793 185.012L167.97 185.248Z" fill="#666666"/>
<rect x="162.091" y="90.1861" width="19" height="80" rx="9.5" transform="rotate(-16 162.091 90.1861)" fill="#FFA500"/>
<path d="M193.122 178.036L192.658 171.428L193.497 171.187L196.613 177.035L195.79 177.271L195.056 175.783L193.787 176.147L193.937 177.802L193.122 178.036ZM193.724 175.491L194.762 175.194L193.434 172.537L193.724 175.491ZM197.595 178.334L195.901 172.428L196.724 172.192L196.826 172.546C196.891 172.406 196.981 172.274 197.096 172.153C197.211 172.031 197.363 171.943 197.552 171.888C197.783 171.822 197.983 171.832 198.151 171.916C198.324 171.995 198.47 172.116 198.589 172.282C198.707 172.442 198.804 172.614 198.879 172.798C198.952 172.977 199.008 173.133 199.046 173.266L199.355 174.343C199.444 174.655 199.499 174.962 199.518 175.261C199.536 175.556 199.488 175.814 199.374 176.035C199.264 176.25 199.062 176.399 198.77 176.483C198.611 176.528 198.459 176.53 198.314 176.489C198.167 176.442 198.031 176.381 197.904 176.307L198.418 178.098L197.595 178.334ZM198.423 175.883C198.567 175.842 198.655 175.761 198.687 175.641C198.717 175.516 198.715 175.361 198.679 175.177C198.643 174.994 198.594 174.794 198.532 174.579L198.223 173.502C198.17 173.317 198.112 173.151 198.047 173.003C197.981 172.85 197.901 172.737 197.808 172.664C197.715 172.591 197.597 172.575 197.453 172.616C197.346 172.647 197.25 172.699 197.165 172.773C197.081 172.847 197.012 172.926 196.958 173.008L197.774 175.853C197.867 175.887 197.968 175.911 198.077 175.924C198.185 175.932 198.3 175.918 198.423 175.883ZM200.631 175.883L199.356 171.438L200.179 171.202L200.36 171.832C200.446 171.514 200.558 171.285 200.696 171.145C200.833 171.006 200.984 170.913 201.148 170.866C201.169 170.86 201.187 170.855 201.202 170.85C201.223 170.844 201.249 170.84 201.281 170.836L201.541 171.743C201.472 171.735 201.395 171.735 201.308 171.744C201.226 171.745 201.143 171.758 201.061 171.781C200.933 171.818 200.824 171.882 200.734 171.975C200.648 172.061 200.577 172.203 200.523 172.401L201.454 175.647L200.631 175.883Z" fill="#666666"/>
<rect x="207.452" y="125.033" width="19" height="34" rx="9.5" transform="rotate(-16 207.452 125.033)" fill="#F2F2F2"/>
<path d="M223.919 169.207L222.248 162.944L223.102 162.7L225.65 167.437L225.309 162.067L226.155 161.824L228.056 168.02L227.357 168.221L225.991 163.719L226.234 168.543L225.742 168.684L223.399 164.462L224.627 169.004L223.919 169.207ZM229.629 167.636C229.454 167.686 229.287 167.681 229.125 167.622C228.963 167.558 228.821 167.46 228.7 167.328C228.577 167.191 228.491 167.036 228.441 166.861C228.362 166.584 228.341 166.338 228.379 166.122C228.417 165.906 228.497 165.711 228.619 165.537C228.745 165.357 228.899 165.188 229.081 165.03C229.268 164.871 229.467 164.711 229.676 164.551L229.586 164.236C229.534 164.057 229.481 163.911 229.427 163.799C229.373 163.687 229.304 163.612 229.221 163.575C229.142 163.531 229.039 163.527 228.91 163.564C228.798 163.596 228.713 163.649 228.656 163.72C228.604 163.791 228.576 163.879 228.574 163.985C228.569 164.086 228.585 164.201 228.622 164.329L228.686 164.552L227.862 164.755C227.731 164.26 227.74 163.866 227.89 163.574C228.037 163.276 228.337 163.063 228.788 162.933C229.229 162.807 229.576 162.838 229.83 163.026C230.083 163.214 230.276 163.536 230.406 163.992L230.989 166.023C231.028 166.161 231.069 166.294 231.111 166.42C231.158 166.545 231.203 166.663 231.245 166.773C231.292 166.876 231.334 166.975 231.372 167.069L230.618 167.286C230.579 167.208 230.53 167.111 230.469 166.996C230.411 166.873 230.363 166.762 230.323 166.663C230.322 166.852 230.269 167.044 230.165 167.241C230.064 167.431 229.885 167.562 229.629 167.636ZM229.749 166.836C229.831 166.812 229.901 166.767 229.96 166.7C230.018 166.634 230.068 166.564 230.108 166.492C230.146 166.414 230.171 166.354 230.181 166.312L229.82 165.051C229.712 165.16 229.612 165.266 229.52 165.37C229.428 165.474 229.35 165.58 229.286 165.687C229.226 165.787 229.185 165.896 229.163 166.013C229.145 166.124 229.154 166.243 229.191 166.372C229.243 166.551 229.316 166.682 229.412 166.766C229.508 166.849 229.621 166.873 229.749 166.836ZM232.324 168.003L232.143 167.373C232.343 167.315 232.499 167.259 232.611 167.205C232.725 167.156 232.8 167.098 232.836 167.032C232.874 166.972 232.881 166.898 232.856 166.81C232.843 166.764 232.795 166.667 232.714 166.518C232.632 166.37 232.545 166.211 232.453 166.044L230.476 162.516L231.307 162.278L232.859 165.428L232.483 161.94L233.314 161.702L233.598 166.698C233.613 166.926 233.577 167.12 233.489 167.278C233.403 167.441 233.271 167.579 233.092 167.691C232.918 167.802 232.696 167.897 232.424 167.975L232.324 168.003Z" fill="#666666"/>
<rect x="224.698" y="61.8314" width="19" height="90" rx="9.5" transform="rotate(-16 224.698 61.8314)" fill="#F2F2F2"/>
<path d="M257.297 159.792L257.119 159.169C257.308 159.115 257.459 159.058 257.569 158.998C257.68 158.939 257.756 158.867 257.799 158.783C257.846 158.697 257.865 158.589 257.855 158.458C257.844 158.323 257.811 158.158 257.755 157.963L256.377 153.157L257.238 152.91L258.621 157.731C258.724 158.09 258.77 158.396 258.759 158.649C258.747 158.896 258.659 159.105 258.497 159.273C258.333 159.437 258.072 159.57 257.713 159.673L257.297 159.792ZM260.586 158.757C260.412 158.807 260.262 158.8 260.139 158.736C260.015 158.672 259.912 158.576 259.832 158.449C259.756 158.321 259.698 158.185 259.657 158.042L258.625 154.443L259.447 154.207L260.409 157.56C260.454 157.719 260.514 157.838 260.586 157.917C260.657 157.991 260.765 158.007 260.908 157.966C261 157.94 261.088 157.887 261.171 157.807C261.257 157.722 261.335 157.627 261.406 157.524L260.378 153.94L261.201 153.704L262.475 158.149L261.653 158.385L261.527 157.947C261.423 158.126 261.293 158.291 261.136 158.442C260.985 158.59 260.801 158.696 260.586 158.757ZM263.317 157.908L262.042 153.463L262.865 153.227L262.991 153.665C263.1 153.484 263.23 153.319 263.382 153.17C263.533 153.022 263.717 152.916 263.932 152.855C264.111 152.803 264.26 152.81 264.379 152.876C264.503 152.94 264.603 153.037 264.678 153.165C264.759 153.291 264.82 153.427 264.861 153.57L265.893 157.169L265.07 157.405L264.107 154.044C264.061 153.886 264.003 153.769 263.932 153.695C263.86 153.621 263.753 153.605 263.61 153.646C263.517 153.672 263.428 153.729 263.342 153.814C263.259 153.894 263.182 153.985 263.112 154.088L264.14 157.672L263.317 157.908Z" fill="#666666"/>
<defs>
<filter id="filter0_d_151_31" x="0" y="3.78626" width="319.422" height="285.14" filterUnits="userSpaceOnUse" color-interpolation-filters="sRGB">
<feFlood flood-opacity="0" result="BackgroundImageFix"/>
<feColorMatrix in="SourceAlpha" type="matrix" values="0 0 0 0 0 0 0 0 0 0 0 0 0 0 0 0 0 0 127 0" result="hardAlpha"/>
<feOffset dy="30"/>
<feGaussianBlur stdDeviation="15"/>
<feComposite in2="hardAlpha" operator="out"/>
<feColorMatrix type="matrix" values="0 0 0 0 0 0 0 0 0 0 0 0 0 0 0 0 0 0 0.08 0"/>
<feBlend mode="normal" in2="BackgroundImageFix" result="effect1_dropShadow_151_31"/>
<feBlend mode="normal" in="SourceGraphic" in2="effect1_dropShadow_151_31" result="shape"/>
</filter>
</defs>
</svg>
